<svg width="541" height="560" viewBox="0 0 541 560" fill="none" xmlns="http://www.w3.org/2000/svg">
<g clip-path="url(#clip0_401_9)">
<path d="M537.08 227.256C533.261 208.865 526.515 191.205 517.099 174.952C497.706 142.63 455.393 95.6155 402.502 58.5917C402.502 58.5917 362.54 32.7338 343.734 23.9186C274.975 -7.81613 197.989 -14.2806 132.169 43.8997C21.6853 142.042 -33.5566 278.972 21.6853 415.313C22.8607 418.252 53.42 501.702 236.776 557.532C317.288 559.883 364.303 555.181 416.018 525.209C483.602 486.423 522.976 415.901 537.08 344.204C541.194 322.46 541.782 249 537.08 227.256Z" fill="#04FFCC"/>
<path d="M323.224 33.9091V164.962L171.602 155.559L109.308 234.308L101.669 382.991L153.384 438.233L230.958 477.02L332.627 488.186L443.111 459.977V186.706L421.954 73.2837C421.954 73.2837 362.598 26.857 323.812 15.6911" fill="#7DF8FB"/>
<path d="M500.644 358.896C479.488 357.721 491.241 324.223 481.839 286.024C470.673 243.711 487.128 214.327 508.872 215.502C519.079 217.109 528.752 221.14 537.08 227.256C533.261 208.865 526.515 191.205 517.099 174.952C497.706 142.63 455.393 95.6155 402.502 58.5917V412.963C402.51 421.101 399.745 428.998 394.661 435.354C389.578 441.709 382.481 446.142 374.54 447.922C366.599 449.702 358.288 448.722 350.979 445.145C343.669 441.567 337.797 435.605 334.331 428.242C313.358 441.241 289.311 448.443 264.645 449.112C239.98 449.781 215.578 443.893 193.931 432.05C172.284 420.207 154.167 402.833 141.428 381.701C128.69 360.568 121.787 336.434 121.423 311.762C121.059 287.09 127.248 262.763 139.358 241.264C151.468 219.765 169.065 201.865 190.354 189.389C211.642 176.913 235.86 170.309 260.534 170.25C285.209 170.192 309.458 176.682 330.805 189.057V51.5395C330.703 46.2533 331.816 41.0142 334.057 36.2256C336.299 31.437 339.609 27.2266 343.734 23.9186C274.975 -7.81613 197.989 -14.2806 132.169 43.8997C21.6853 142.042 -33.5566 278.972 21.6853 415.313C22.8607 418.252 24.0361 421.19 25.2114 423.541C26.803 420.228 28.9948 417.239 31.6759 414.726C60.4722 385.342 92.2069 445.285 159.79 479.958C202.691 501.702 227.373 530.499 236.776 557.532C299.658 565.172 364.303 555.181 416.018 525.209C483.602 486.423 522.976 415.901 537.08 344.204C526.94 353.071 514.099 358.249 500.644 358.896ZM270.333 80.3358C286.2 79.7481 300.892 98.5539 301.48 107.369C302.067 116.184 287.963 112.658 272.683 117.947C255.641 123.824 243.299 118.535 242.712 109.72C242.124 100.905 253.819 80.9235 270.333 80.3358Z" fill="#2C398F"/>
<path d="M235.601 361.247C269.686 380.64 310.824 373 318.464 329.512C322.577 304.242 320.227 264.867 297.895 252.526C223.847 210.213 161.553 318.934 235.601 361.247Z" fill="#2C398F"/>
</g>
<defs>
<clipPath id="clip0_401_9">
<rect width="540.371" height="560" fill="white"/>
</clipPath>
</defs>
</svg>
